:SAMPLES-PER-SECOND 30
:FULLY-SPECIFIED
:DEGREES
707
root  7.21035 34.2838 -15.2681 -170.597 43.729 -179.764
LeftUpLeg  -15.5509 -2.04909 7.36281
LeftLeg  13.5968 -4.95688 -0.866887
LeftFoot  4.24063 0.0311682 -0.372375
LeftToes  -24.7469 7.65994e-007 1.12379e-007
Spine  6.40005 1.02376 1.27321
Spine1  11.9036 1.46525 3.4371
RightShoulder  0.0759563 3.06627 -10.6914
RightArm  12.1504 9.8711 88.4227
RightForeArm  142.406 50.4305 167.332
RightHand  2.73248 -9.12566 -32.8855
LeftShoulder1  0.130662 8.00887 3.73808
LeftArm  -40.2929 -62.5131 -52.3954
LeftForeArm  159.277 -50.3675 -167.333
LeftHand  -0.106829 -1.54246 7.58753
HEad  35.6369 -8.29583 -9.06552
RightUpLeg  -14.6472 -10.0075 1.52211
RightLeg  12.6779 10.5492 1.66296
RightFoot  1.13884 0.001325 0.244077
RightToes  -21.5526 -0.0902818 -0.189187
708
root  7.07018 34.312 -15.4681 -170.586 44.5585 -179.914
LeftUpLeg  -15.341 -0.373 6.68307
LeftLeg  12.7806 -5.16484 -0.827464
LeftFoot  4.91775 0.0359522 -0.450515
LeftToes  -24.2938 7.65994e-007 1.12379e-007
Spine  6.38573 0.921887 1.18391
Spine1  11.8836 1.30714 3.19069
RightShoulder  0.0761412 3.03254 -10.4991
RightArm  12.324 9.74464 88.3451
RightForeArm  142.254 50.5405 167.283
RightHand  2.74805 -9.1924 -32.8344
LeftShoulder1  0.130002 8.2359 3.61196
LeftArm  -39.7409 -62.7775 -52.3305
LeftForeArm  160.852 -49.1965 -167.841
LeftHand  -0.133236 -1.89675 7.69361
HEad  33.8096 -7.32177 -8.99862
RightUpLeg  -14.6943 -9.04057 0.923354
RightLeg  12.5394 10.3275 1.60298
RightFoot  1.47678 0.000981243 0.301269
RightToes  -22.353 -0.0949604 -0.195467
709
root  6.91155 34.3301 -15.6908 -170.463 45.6359 -179.911
LeftUpLeg  -14.9419 1.42211 6.01795
LeftLeg  12.3545 -5.75255 -0.877344
LeftFoot  4.6918 0.0371851 -0.478836
LeftToes  -23.9583 7.65994e-007 1.12379e-007
Spine  6.3547 0.918894 1.12255
Spine1  11.8407 1.32784 3.03835
RightShoulder  0.0766083 3.0156 -10.5107
RightArm  12.4287 9.67587 88.6057
RightForeArm  142.403 50.6108 167.251
RightHand  2.74738 -9.16755 -32.912
LeftShoulder1  0.129188 8.23554 3.55251
LeftArm  -40.2286 -62.6323 -51.4577
LeftForeArm  159.899 -49.8987 -167.539
LeftHand  -0.155198 -2.03429 8.38309
HEad  34.2498 -8.15031 -8.54521
RightUpLeg  -14.7961 -7.96963 0.376338
RightLeg  12.4518 10.226 1.57149
RightFoot  1.80303 0.000680847 0.356612
RightToes  -23.2628 -0.100385 -0.202524
710
root  6.74889 34.3487 -15.9135 -170.372 46.7509 -179.898
LeftUpLeg  -13.9913 2.31085 5.41613
LeftLeg  10.719 -5.42464 -0.669845
LeftFoot  5.03438 0.0363264 -0.478821
LeftToes  -23.2971 7.65994e-007 1.12379e-007
Spine  6.27698 0.977793 1.02328
Spine1  11.7032 1.47934 2.81557
RightShoulder  0.0772094 3.05995 -10.3738
RightArm  12.601 9.51914 88.7481
RightForeArm  142.377 50.5501 167.278
RightHand  2.74715 -9.10281 -33.1336
LeftShoulder1  0.128214 8.26893 3.46415
LeftArm  -40.3896 -62.5311 -50.9708
LeftForeArm  158.767 -51.848 -166.649
LeftHand  -0.13952 -1.73858 8.84077
HEad  36.4848 -9.86647 -7.80434
RightUpLeg  -14.7571 -6.87612 -0.174045
RightLeg  12.0732 10.1307 1.48897
RightFoot  2.27466 -0.00120648 0.438184
RightToes  -24.1127 -0.105552 -0.209039
711
root  6.59743 34.3779 -16.1276 -170.501 47.6725 179.953
LeftUpLeg  -13.3812 3.19118 4.78218
LeftLeg  9.94039 -5.41658 -0.594274
LeftFoot  5.1778 0.0358307 -0.487419
LeftToes  -22.7444 7.65994e-007 1.12379e-007
Spine  6.26353 0.966256 0.876774
Spine1  11.6846 1.49679 2.49007
RightShoulder  0.0779652 3.02882 -10.2103
RightArm  12.9928 9.47876 88.9852
RightForeArm  142.426 50.6398 167.237
RightHand  2.72014 -8.94205 -33.3873
LeftShoulder1  0.127075 8.45449 3.4303
LeftArm  -40.3604 -62.6702 -50.9049
LeftForeArm  157.971 -52.9122 -166.129
LeftHand  -0.121155 -1.53491 8.69515
HEad  37.6224 -10.6786 -7.42253
RightUpLeg  -14.5385 -6.19376 -0.779617
RightLeg  11.5354 10.2398 1.40743
RightFoot  2.79391 -0.00393492 0.53877
RightToes  -24.9221 -0.110562 -0.215171
712
root  6.45288 34.3971 -16.3436 -170.428 48.666 -179.971
LeftUpLeg  -13.2338 4.00724 4.34221
LeftLeg  10.1244 -5.35252 -0.604682
LeftFoot  4.80939 0.0320015 -0.445987
LeftToes  -22.0478 7.65994e-007 1.12379e-007
Spine  6.23932 0.999542 0.773157
Spine1  11.6529 1.59604 2.2564
RightShoulder  0.0788179 3.04502 -10.108
RightArm  13.1244 9.29038 89.168
RightForeArm  142.408 50.5742 167.267
RightHand  2.73434 -8.95963 -33.4906
LeftShoulder1  0.125767 8.53433 3.29997
LeftArm  -40.0111 -63.0918 -51.0023
LeftForeArm  159.532 -51.6954 -166.721
LeftHand  -0.141477 -1.80428 8.62945
HEad  36.022 -9.47474 -7.48159
RightUpLeg  -14.4269 -5.4608 -1.24734
RightLeg  11.1238 10.4455 1.35951
RightFoot  3.28504 -0.00729681 0.638877
RightToes  -25.6007 -0.11483 -0.220257
713
root  6.30421 34.4063 -16.5506 -170.287 49.8577 -179.898
LeftUpLeg  -12.8223 4.52401 3.88824
LeftLeg  9.59813 -4.70364 -0.487976
LeftFoot  4.6903 0.0263965 -0.377536
LeftToes  -21.4284 7.65994e-007 1.12379e-007
Spine  6.18701 1.10014 0.668795
Spine1  11.5725 1.83618 2.01957
RightShoulder  0.079692 3.25046 -10.139
RightArm  13.1619 9.16498 89.3052
RightForeArm  142.324 50.5124 167.295
RightHand  2.75848 -9.04551 -33.4657
LeftShoulder1  0.122805 8.60296 3.16772
LeftArm  -39.6169 -63.4686 -51.3597
LeftForeArm  161.84 -49.8489 -167.558
LeftHand  -0.17848 -2.2424 8.75747
HEad  33.3347 -8.03479 -7.84701
RightUpLeg  -14.5896 -4.93523 -1.67107
RightLeg  11.0559 10.9951 1.41707
RightFoot  3.61022 -0.0113029 0.736048
RightToes  -26.3792 -0.119799 -0.22603
